<?xml version="1.0" encoding="UTF-8"?>
<svg version="1.1" xmlns="http://www.w3.org/2000/svg" width="984" height="164">
<path d="M0 0 C324.72 0 649.44 0 984 0 C984 54.12 984 108.24 984 164 C659.28 164 334.56 164 0 164 C0 109.88 0 55.76 0 0 Z " fill="#FCFCFC" transform="translate(0,0)"/>
<path d="M0 0 C13.715625 -0.103125 27.43125 -0.20625 41.5625 -0.3125 C45.8635376 -0.35802002 50.1645752 -0.40354004 54.59594727 -0.45043945 C59.92370605 -0.47302246 59.92370605 -0.47302246 62.43247986 -0.47721863 C64.15272017 -0.48480369 65.87293706 -0.5021919 67.59300232 -0.52787781 C84.21664301 -0.76330793 97.26939924 1.87198261 111 12 C111.82371094 12.59167969 112.64742188 13.18335938 113.49609375 13.79296875 C116.51453941 16.45353318 118.72769418 19.42057078 120.9375 22.75 C121.370625 23.40178223 121.80375 24.05356445 122.25 24.72509766 C129.89160782 36.68649497 134.29415687 50.64763068 134.3359375 64.84765625 C134.3459227 66.07010292 134.3459227 66.07010292 134.35610962 67.31724548 C134.36616496 69.03235648 134.37092887 70.74750604 134.37060547 72.46264648 C134.37494917 75.03242798 134.41126199 77.60044633 134.44921875 80.16992188 C134.60686598 103.32594456 127.32353539 125.83937488 111.1953125 142.91015625 C103.30333323 150.36005369 93.79671206 154.21082038 83.30078125 156.45703125 C81.04919709 156.77553912 81.04919709 156.77553912 80 158 C77.5050359 158.0950257 75.03797738 158.12556258 72.54272461 158.11352539 C71.74962922 158.11364593 70.95653383 158.11376646 70.13940525 158.11389065 C67.56035667 158.1131415 64.98137948 158.10551321 62.40234375 158.09765625 C60.81481969 158.09618684 59.22729515 158.09516612 57.63977051 158.09460449 C51.73900631 158.08935154 45.83825246 158.07539046 39.9375 158.0625 C20.1684375 158.0315625 20.1684375 158.0315625 0 158 C0 105.86 0 53.72 0 0 Z " fill="#010101" transform="translate(160,2)"/>
<path d="M0 0 C13.695 -0.12375 27.39 -0.2475 41.5 -0.375 C45.79193359 -0.42962402 50.08386719 -0.48424805 54.50585938 -0.54052734 C59.82910156 -0.56762695 59.82910156 -0.56762695 62.33703613 -0.57266235 C64.05392852 -0.58175473 65.77078755 -0.60259952 67.48742676 -0.63345337 C83.5068653 -0.90647453 97.0916792 1.83303393 110 12 C110.82371094 12.62003906 111.64742188 13.24007813 112.49609375 13.87890625 C122.5015108 22.35463395 128.83158386 36.48608751 132 49 C132.18457764 49.6815918 132.36915527 50.36318359 132.55932617 51.06542969 C134.3584662 58.56647183 134.27034872 66.08121104 134.20581055 73.74365234 C134.18731154 76.02322342 134.18530306 78.30239219 134.18554688 80.58203125 C134.14794955 91.7041009 134.14794955 91.7041009 133 94 C132.75418645 95.68515557 132.52859058 97.37327578 132.3125 99.0625 C129.95761544 113.311258 124.44028356 125.38310062 116 137 C115.49726562 137.71800781 114.99453125 138.43601563 114.4765625 139.17578125 C105.94122819 150.30131817 91.07488546 155.0944699 78 158 C52.26 158 26.52 158 0 158 C0 105.86 0 53.72 0 0 Z " fill="#010101" transform="translate(0,2)"/>
<path d="M0 0 C16.17 0 32.34 0 49 0 C52.1875 14.125 52.1875 14.125 53.23828125 18.78271484 C54.63086196 24.95314747 56.02534821 31.12307213 57.4375 37.2890625 C59.38699573 45.80379366 61.29420743 54.32061448 63.0625 62.875 C64.21180522 68.43272388 65.4583732 73.94005524 66.875 79.4375 C69.15279065 88.31365247 71.019454 97.27307659 72.89404297 106.24194336 C74.08316952 111.89481363 75.29726012 117.47825782 77 123 C79.14052106 114.69059598 81.06311414 106.34689395 82.87536621 97.96011353 C83.63304771 94.45432904 84.39716293 90.949944 85.16015625 87.4453125 C85.31410858 86.73734024 85.46806091 86.02936798 85.62667847 85.29994202 C87.14967407 78.30010665 88.69583904 71.30548021 90.25 64.3125 C90.48372314 63.25861084 90.71744629 62.20472168 90.95825195 61.11889648 C92.08565473 56.04981933 93.23380735 50.9867252 94.4140625 45.9296875 C95.66406448 40.53279588 96.84725076 35.12367381 98.0078125 29.70703125 C98.26697449 28.49811974 98.26697449 28.49811974 98.53137207 27.26478577 C99.24650902 23.9251964 99.96053307 20.58537699 100.67138672 17.24487305 C101.19779446 14.77340526 101.72754632 12.30267361 102.2578125 9.83203125 C102.41823029 9.07380569 102.57864807 8.31558014 102.743927 7.53437805 C103.8865066 2.2269868 103.8865066 2.2269868 105 0 C121.17 0 137.34 0 154 0 C154 52.14 154 104.28 154 158 C143.44 158 132.88 158 122 158 C121.95407402 146.56513722 121.91770796 135.13033968 121.89637566 123.69540405 C121.88611646 118.38072169 121.87230315 113.06610779 121.84912109 107.75146484 C121.73164112 80.09916742 122.26807584 52.60135906 124 25 C123.34 25 122.68 25 122 25 C119.89045537 34.35518613 117.82873985 43.71784637 115.88671875 53.109375 C115.62065323 54.3959626 115.62065323 54.3959626 115.34921265 55.70854187 C114.9833037 57.4792853 114.61751123 59.25005281 114.25183105 61.02084351 C111.15515401 75.99665638 107.93081447 90.92305556 104.39013672 105.80053711 C102.34421479 114.42212178 100.48800977 123.07044008 98.7109375 131.75097656 C97.46272043 137.83079899 96.15772254 143.89249778 94.75 149.9375 C94.58669189 150.64817627 94.42338379 151.35885254 94.25512695 152.09106445 C93.12228937 156.87771063 93.12228937 156.87771063 92 158 C89.63601532 158.1007812 87.30188689 158.13973215 84.9375 158.1328125 C84.23101318 158.13376923 83.52452637 158.13472595 82.79663086 158.13571167 C81.30029207 158.13639333 79.80395033 158.13454005 78.30761719 158.13037109 C76.00969843 158.12502257 73.71197514 158.13031651 71.4140625 158.13671875 C69.96354123 158.13605797 68.51302009 158.1347768 67.0625 158.1328125 C66.0250061 158.13584885 66.0250061 158.13584885 64.96655273 158.13894653 C60.11495224 158.11495224 60.11495224 158.11495224 59 157 C58.3971416 154.06608913 57.84294568 151.13474854 57.3125 148.1875 C54.31205486 132.00349518 51.09270638 115.80609492 46.9375 99.875 C44.81939239 91.7038903 43.29018661 83.42935732 41.74975586 75.13232422 C40.8178591 70.13269621 39.83875469 65.19345561 38.55371094 60.27001953 C37.01282095 53.9529141 35.82350537 47.54868003 34.52905273 41.17700195 C34.13414548 39.23618594 33.7370265 37.29582037 33.33984375 35.35546875 C33.10644287 34.20715576 32.87304199 33.05884277 32.63256836 31.87573242 C32.04196161 28.95082331 32.04196161 28.95082331 31 26 C30.67 69.56 30.34 113.12 30 158 C20.1 158 10.2 158 0 158 C0 105.86 0 53.72 0 0 Z " fill="#020202" transform="translate(380,2)"/>
<path d="M0 0 C1.83594727 -0.03577148 1.83594727 -0.03577148 3.70898438 -0.07226562 C12.32257866 -0.05851321 18.78482447 1.66157405 26.4375 5.5625 C27.11063232 5.8922583 27.78376465 6.2220166 28.47729492 6.56176758 C36.54805564 10.70251778 42.20732492 15.51952712 46.4375 23.5625 C46.76892502 24.15470337 47.10035004 24.74690674 47.44181824 25.35705566 C50.82792298 32.00393848 50.96202701 37.89416167 50.828125 45.25390625 C50.82246521 46.43975815 50.81680542 47.62561005 50.81097412 48.84739685 C50.78871801 52.6070216 50.7385393 56.36566694 50.6875 60.125 C50.6674212 62.68553304 50.64917286 65.24608113 50.6328125 67.80664062 C50.58888842 74.05892367 50.52208371 80.31064184 50.4375 86.5625 C49.7775 86.5625 49.1175 86.5625 48.4375 86.5625 C48.39625 87.490625 48.355 88.41875 48.3125 89.375 C46.96563375 98.5078602 40.39581213 107.74381694 33.4375 113.5625 C28.99779977 116.34801349 24.24386738 118.48950284 19.4375 120.5625 C18.70055908 120.91393066 17.96361816 121.26536133 17.2043457 121.62744141 C13.75083867 122.79455796 10.50403977 122.90530003 6.8984375 122.93359375 C6.17693512 122.94262222 5.45543274 122.9516507 4.71206665 122.96095276 C3.18748085 122.9754175 1.66283351 122.98433259 0.13818359 122.98803711 C-2.16028825 122.99986003 -4.45600609 123.04901114 -6.75390625 123.09960938 C-15.78681013 123.19901002 -22.62230086 122.31769598 -30.5625 117.5625 C-31.39813477 117.07579834 -32.23376953 116.58909668 -33.09472656 116.08764648 C-44.29900948 109.32980125 -51.03897072 98.27722549 -54.63623047 85.85449219 C-55.6520589 81.64459704 -55.86883427 77.64500157 -55.86328125 73.328125 C-55.86756638 72.56884705 -55.8718515 71.80956909 -55.87626648 71.02728271 C-55.88197099 69.43063344 -55.88253892 67.83395819 -55.87817383 66.23730469 C-55.87502581 63.83221569 -55.89847933 61.42837398 -55.92382812 59.0234375 C-55.9716419 47.68747227 -54.98264651 37.37132132 -49.625 27.125 C-49.14160156 26.17753906 -48.65820312 25.23007813 -48.16015625 24.25390625 C-41.29209676 12.68399674 -30.94382299 5.10882453 -18.17431641 1.37182617 C-12.11059028 0.01308262 -6.19130124 -0.0556007 0 0 Z " fill="#020202" transform="translate(933.5625,39.4375)"/>
<path d="M0 0 C2.14838363 0.00316189 4.29538913 -0.02036385 6.44360352 -0.0456543 C13.83120648 -0.07957847 20.36493226 0.27815539 27.21899414 3.31567383 C28.0659082 3.61989258 28.91282227 3.92411133 29.78540039 4.23754883 C39.64321855 8.32728944 45.45399821 14.87673284 50.21899414 24.31567383 C50.60313477 25.0555957 50.98727539 25.79551758 51.38305664 26.55786133 C52.21899414 29.31567383 52.21899414 29.31567383 52.21899414 38.31567383 C42.31899414 38.31567383 32.41899414 38.31567383 22.21899414 38.31567383 C21.55899414 36.00567383 20.89899414 33.69567383 20.21899414 31.31567383 C16.2197417 26.42769863 11.95291676 23.64624617 5.63305664 22.88208008 C-3.12584658 22.87305028 -9.15761401 23.11259033 -15.84350586 29.19067383 C-17.21464827 32.29859662 -16.78345724 34.10782941 -15.78100586 37.31567383 C-9.44806338 44.77698022 1.78828038 45.70579914 10.90649414 47.69067383 C44.55818825 55.07358923 44.55818825 55.07358923 52.78149414 67.00317383 C58.03146106 75.61430937 57.10209063 86.53440001 56.21899414 96.31567383 C55.14861089 100.25521714 53.6994644 103.09999493 51.21899414 106.31567383 C50.47649414 107.38817383 49.73399414 108.46067383 48.96899414 109.56567383 C41.32776597 117.206902 31.50420538 122.53467747 20.53149414 122.56567383 C19.09294398 122.5030309 17.6545371 122.42777697 16.21899414 122.31567383 C16.21899414 122.97567383 16.21899414 123.63567383 16.21899414 124.31567383 C7.30899414 124.31567383 -1.60100586 124.31567383 -10.78100586 124.31567383 C-10.78100586 123.65567383 -10.78100586 122.99567383 -10.78100586 122.31567383 C-12.01850586 122.41879883 -13.25600586 122.52192383 -14.53100586 122.62817383 C-24.47633985 122.59689919 -33.82226401 117.13579533 -40.78100586 110.31567383 C-46.75053759 103.61017243 -49.70386652 94.93425196 -51.78100586 86.31567383 C-51.45100586 85.32567383 -51.12100586 84.33567383 -50.78100586 83.31567383 C-40.55100586 83.31567383 -30.32100586 83.31567383 -19.78100586 83.31567383 C-18.79100586 86.61567383 -17.80100586 89.91567383 -16.78100586 93.31567383 C-12.29175368 98.5713837 -7.3863703 99.62191514 -0.78100586 100.31567383 C6.51206597 100.84793218 15.01586733 100.82577233 21.44946289 96.98364258 C23.79755735 94.77031734 23.99927137 92.5700205 24.43383789 89.44848633 C24.12078459 86.34072088 23.17674134 84.74790559 21.21899414 82.31567383 C18.10344597 80.8909431 18.10344597 80.8909431 14.59399414 80.06567383 C8.26431136 78.36099105 8.26431136 78.36099105 7.21899414 77.31567383 C6.06399414 77.15067383 4.90899414 76.98567383 3.71899414 76.81567383 C0.21899414 76.31567383 0.21899414 76.31567383 -0.78100586 75.31567383 C-2.5011399 75.0025375 -4.22243002 74.69466433 -5.94848633 74.41601562 C-18.79174785 72.31835113 -33.65035062 68.02850714 -42.21850586 57.56567383 C-47.36306733 49.92898768 -48.80983618 41.48865573 -47.31225586 32.50317383 C-44.83125376 20.92516403 -40.33768969 13.73471342 -30.56225586 7.00708008 C-20.41664718 0.83706806 -11.65232126 -0.0358533 0 0 Z " fill="#020202" transform="translate(743.781005859375,39.684326171875)"/>
<path d="M0 0 C10.56 0 21.12 0 32 0 C32.0093457 2.47765869 32.01869141 4.95531738 32.02832031 7.50805664 C32.06213103 15.70648267 32.11770279 23.90465807 32.18390274 32.10288334 C32.22336345 37.07210142 32.25555887 42.04114266 32.27099609 47.01049805 C32.28617188 51.80881725 32.32063393 56.60665025 32.36830902 61.40475273 C32.38311328 63.2326681 32.39104047 65.06065288 32.39188385 66.88862801 C32.39425816 69.45500267 32.42137397 72.02003873 32.45410156 74.58618164 C32.4490712 75.33712601 32.44404083 76.08807037 32.43885803 76.86177063 C32.56003593 83.02829174 34.42280383 87.42280383 38.875 91.875 C46.37387 95.84499 55.07497037 94.24149231 62.80078125 91.94921875 C65.12305812 90.9468861 66.27545371 89.80546341 68 88 C68.66 88 69.32 88 70 88 C70.69419563 86.34461042 71.35103764 84.67363977 72 83 C72.50893799 81.80383057 73.01787598 80.60766113 73.54223633 79.37524414 C75.92363284 72.13855552 75.48254417 64.46848931 75.51171875 56.93359375 C75.52858821 55.28734517 75.54674146 53.6411093 75.56611633 51.99488831 C75.61337668 47.68944265 75.64334033 43.38404853 75.66955566 39.07843018 C75.69948295 34.67392812 75.7459711 30.26960318 75.79101562 25.86523438 C75.8767758 17.24356247 75.94270842 8.62190812 76 0 C85.9 0 95.8 0 106 0 C106 38.94 106 77.88 106 118 C96.43 118 86.86 118 77 118 C77.33 112.72 77.66 107.44 78 102 C74.43577368 103.18807544 73.96775885 104.16968107 71.875 107.1875 C67.19170177 113.41866799 61.36088709 117.4555684 54 120 C49.46862502 120.49278423 44.93049046 120.46223428 40.375 120.5 C39.15425781 120.54125 37.93351563 120.5825 36.67578125 120.625 C27.90814057 120.70001725 22.25599685 118.86854508 15 114 C14.071875 113.443125 13.14375 112.88625 12.1875 112.3125 C8.53732781 108.45374654 6.36713199 103.72038051 4 99 C3.66547821 98.38920593 3.33095642 97.77841187 2.98629761 97.14910889 C-1.60583467 87.1430091 -0.25993005 74.4287973 -0.1953125 63.671875 C-0.19157461 61.82814692 -0.18873131 59.98441683 -0.18673706 58.14068604 C-0.17916167 53.32719273 -0.15956673 48.51382333 -0.1373291 43.70037842 C-0.11673816 38.77292557 -0.10770723 33.84545238 -0.09765625 28.91796875 C-0.07631409 19.2785831 -0.04118285 9.63932132 0 0 Z " fill="#010101" transform="translate(564,42)"/>
<path d="M0 0 C12.87 0 25.74 0 39 0 C39.495 0.495 39.495 0.495 40 1 C41.33146958 1.21993024 42.66528362 1.42571943 44 1.625 C51.76354789 3.31594763 57.05355117 8.23926459 61.4375 14.6875 C71.52764884 30.87198375 70.39935172 52.693835 68 71 C67.67 71.33 67.34 71.66 67 72 C66.87753906 73.04285156 66.75507813 74.08570312 66.62890625 75.16015625 C65.05937814 84.74305148 58.81566788 94.24178999 51 100 C43 104 43 104 0 104 C0 69.68 0 35.36 0 0 Z " fill="#FDFDFD" transform="translate(192,28)"/>
<path d="M0 0 C46.28339695 0 46.28339695 0 56.25 8.16015625 C67.28429348 19.76094247 68.47133844 34.72291836 68.5 49.875 C68.5023465 50.65801483 68.50469299 51.44102966 68.5071106 52.24777222 C68.4870469 68.38498375 66.58452242 83.63668616 55 96 C39.0598815 110.47995498 24.85074551 104 0 104 C0 69.68 0 35.36 0 0 Z " fill="#FDFDFD" transform="translate(32,28)"/>
<path d="M0 0 C3.375 3.25 3.375 3.25 9.375 15.25 C18.945 15.58 28.515 15.91 38.375 16.25 C38.375 27.47 38.375 38.69 38.375 50.25 C28.475 50.25 18.575 50.25 8.375 50.25 C7.385 53.22 6.395 56.19 5.375 59.25 C2.88829765 64.5786479 -0.84980381 66.70822434 -5.875 69.5 C-12.59620005 71.33305456 -18.12388414 70.89122134 -24.4375 67.875 C-31.15551441 63.8936025 -33.24825205 58.38024386 -35.625 51.25 C-37.32368825 39.77861143 -38.22111678 26.41806453 -34.625 15.25 C-34.40714844 14.54359375 -34.18929687 13.8371875 -33.96484375 13.109375 C-31.91091792 7.04861027 -28.93887564 2.08844503 -23.07421875 -1.015625 C-16.20349994 -3.07574484 -6.46448215 -3.33852366 0 0 Z " fill="#FCFCFC" transform="translate(945.625,67.75)"/>
<path d="M0 0 C0 0.33 0 0.66 0 1 C-16.17 1 -32.34 1 -49 1 C-49.721875 4.609375 -50.44375 8.21875 -51.1875 11.9375 C-51.43129395 13.15284424 -51.67508789 14.36818848 -51.92626953 15.62036133 C-53.06732434 21.31049627 -54.19813967 27.00226589 -55.3046875 32.69921875 C-57.26152339 42.7266805 -59.30839545 52.63107651 -62.046875 62.4765625 C-64.72077633 72.36123054 -66.69031303 82.42504875 -68.703125 92.4609375 C-69.01185082 93.99115217 -69.32068984 95.52134401 -69.62963867 97.05151367 C-70.2454902 100.10206923 -70.8507703 103.15447912 -71.45043945 106.20825195 C-71.73872932 107.64281443 -72.02737062 109.07730634 -72.31640625 110.51171875 C-72.69454468 112.42150513 -72.69454468 112.42150513 -73.08032227 114.36987305 C-74.04746752 118.18736251 -75.35835447 121.43136779 -77 125 C-78.68639077 121.93154311 -79.58696408 119.03300655 -80.3671875 115.625 C-80.61106201 114.56692139 -80.85493652 113.50884277 -81.10620117 112.41870117 C-81.35990479 111.29052979 -81.6136084 110.1623584 -81.875 109 C-82.27199097 107.25843628 -82.27199097 107.25843628 -82.67700195 105.48168945 C-84.46327246 97.57618049 -86.11579083 89.65107337 -87.67578125 81.69824219 C-89.30104932 73.412761 -91.1709238 65.20938747 -93.2734375 57.03125 C-96.39994732 44.82176315 -99.24824922 32.5753156 -101.875 20.25 C-102.03206421 19.51914185 -102.18912842 18.78828369 -102.35095215 18.03527832 C-102.79866636 15.94637678 -103.24030503 13.85629312 -103.6796875 11.765625 C-104.06229736 9.95239746 -104.06229736 9.95239746 -104.45263672 8.10253906 C-105 5 -105 5 -105 1 C-121.17 1 -137.34 1 -154 1 C-154 0.67 -154 0.34 -154 0 C-102.65160637 -1.35221992 -51.34839363 -1.35221992 0 0 Z " fill="#FCFCFC" transform="translate(534,1)"/>
<path d="M0 0 C9.9 0 19.8 0 30 0 C30 38.94 30 77.88 30 118 C20.1 118 10.2 118 0 118 C0 79.06 0 40.12 0 0 Z " fill="#000000" transform="translate(824,42)"/>
<path d="M0 0 C10.23 0 20.46 0 31 0 C31 9.24 31 18.48 31 28 C20.77 28 10.54 28 0 28 C0 18.76 0 9.52 0 0 Z " fill="#050404" transform="translate(823,0)"/>
<path d="M0 0 C0.66 0 1.32 0 2 0 C2 12.54 2 25.08 2 38 C-17.8 38 -37.6 38 -58 38 C-56 36 -56 36 -53.99145508 35.79223633 C-53.17572021 35.80536865 -52.35998535 35.81850098 -51.51953125 35.83203125 C-36.03750132 35.79228454 -25.75527812 33.18167732 -13 24 C-6.66027656 17.44342486 -1.50951473 9.05708836 0 0 Z " fill="#F3F3F3" transform="translate(982,126)"/>
<path d="M0 0 C2 1 2 1 2.88671875 3.58203125 C3.15097656 4.64808594 3.41523438 5.71414062 3.6875 6.8125 C3.95949219 7.87082031 4.23148437 8.92914063 4.51171875 10.01953125 C4.97258895 12.83268294 4.9525694 14.35965663 4 17 C3.67 16.01 3.34 15.02 3 14 C2.34 13.67 1.68 13.34 1 13 C1 52.6 1 92.2 1 133 C0.67 133 0.34 133 0 133 C0 89.11 0 45.22 0 0 Z " fill="#D8D7D7" transform="translate(410,27)"/>
<path d="M0 0 C0.66 0 1.32 0 2 0 C2 4.95 2 9.9 2 15 C1.67 15 1.34 15 1 15 C0.67 13.35 0.34 11.7 0 10 C-0.99 10.99 -1.98 11.98 -3 13 C-2.88490339 11.58249437 -2.75746342 10.16598831 -2.625 8.75 C-2.55539062 7.96109375 -2.48578125 7.1721875 -2.4140625 6.359375 C-1.98492887 3.914123 -1.21399362 2.15163097 0 0 Z " fill="#D7D6D5" transform="translate(502,27)"/>
<path d="M0 0 C0.66 0 1.32 0 2 0 C2.80967438 2.91482778 3.21845993 4.46113217 2.0625 7.3125 C1.5365625 8.1478125 1.5365625 8.1478125 1 9 C-0.61949011 6.42786866 -1.04408751 5.32330841 -0.625 2.25 C-0.41875 1.5075 -0.2125 0.765 0 0 Z " fill="#ECEBEC" transform="translate(456,117)"/>
<path d="M0 0 C0.99 0.495 0.99 0.495 2 1 C2.40729228 3.32156597 2.74438677 5.6568787 3 8 C2.34 8 1.68 8 1 8 C-0.35439668 5.29120665 -0.06501451 2.99066732 0 0 Z " fill="#CBCACB" transform="translate(410,27)"/>
</svg>
